<svg width="66" height="44" viewBox="0 0 66 44" fill="none" xmlns="http://www.w3.org/2000/svg">
<path d="M1.21568 24.7856L19.1772 42.8526C20.7431 44.4245 23.2311 44.3761 24.7403 42.7395C26.2444 41.1029 26.1981 38.5027 24.6322 36.9253L13.7635 25.9915L62.0439 26.2876L62.0697 26.2876C64.228 26.2876 65.9896 24.4626 65.9999 22.2015C66.0154 19.9297 64.264 18.0778 62.0903 18.067L13.7841 17.7709L24.6013 7.10621C26.1826 5.55038 26.2547 2.94477 24.7609 1.29204C23.9883 0.436066 22.9426 3.8652e-06 21.897 3.77379e-06C20.9286 3.68913e-06 19.9602 0.371464 19.1978 1.11977L1.23628 18.8314C0.453333 19.6013 0.00519003 20.678 4.00875e-05 21.8031C-0.00510985 22.9283 0.432726 24.005 1.20538 24.7856L1.21568 24.7856Z" fill="#B07C57"/>
</svg>
