<svg width="75" height="68" viewBox="0 0 75 68" fill="none" xmlns="http://www.w3.org/2000/svg">
<path d="M27.9715 20.5759C27.9686 20.3832 28.1705 19.7071 28.232 19.4681L29.0408 16.2763C29.0924 15.9647 29.5085 14.5177 29.6307 14.0162C29.8154 13.2558 30.011 12.4989 30.2054 11.7333L31.2088 7.78633C31.2543 7.60418 31.2954 7.25445 31.3942 7.22735L52.5609 7.22997L47.3374 27.7593L46.4788 31.1613L46.4307 31.7226C46.3214 33.2381 47.2427 34.3948 48.108 34.9057C48.3198 35.0106 48.486 35.1255 48.7348 35.1884C48.9135 35.3172 49.6173 35.4125 49.9006 35.4183C50.3815 35.4283 50.7557 35.3723 51.1698 35.2356C51.9185 34.9888 52.5282 34.5283 52.8844 34.0492C53.1607 33.7353 53.4276 33.1183 53.5713 32.6223C53.6506 32.3489 53.7243 32.0732 53.7919 31.7998C53.8636 31.5096 53.9615 31.1893 54.0058 30.9069C54.125 30.6183 54.2457 29.9722 54.3355 29.6271L54.6383 28.4107C54.6412 28.4037 54.6447 28.3961 54.6479 28.3894L54.6863 28.3314C54.6607 28.1796 56.384 21.4954 56.5728 20.7671C57.2295 18.2356 57.8333 15.7187 58.492 13.18C58.8207 11.9125 59.1177 10.6623 59.4569 9.39421C59.969 7.48032 60.4105 5.6288 60.8873 3.71491C61.0351 3.12212 61.2382 2.46143 61.3915 1.82259C61.5751 1.05756 61.5308 0.418143 60.8984 0.122914C60.5513 -0.0391266 60.2243 0.00546369 59.8096 0.00604657C59.4112 0.00662945 59.0131 0.00662945 58.6147 0.00633801C52.2808 0.00604657 45.9466 0.013624 39.6128 0.0104182L27.7512 0.00954385C26.8075 0.00954385 26.3846 -0.0321321 25.8693 0.521896C25.2964 1.13771 25.2095 2.2172 24.9533 3.16846L24.684 4.10078C24.7161 4.30624 23.6943 8.0903 23.5544 8.61431C23.3533 9.36739 23.1881 10.1248 22.9847 10.8759C22.7862 11.6089 22.5839 12.3864 22.4027 13.1433C22.0349 14.6786 21.6213 16.1405 21.2442 17.6694L20.3812 21.06C20.3087 21.3628 20.1262 21.9451 20.1067 22.226L27.5343 22.2106C27.6439 21.9305 27.8736 20.684 27.9712 20.5756L27.9715 20.5759Z" fill="white"/>
<path d="M0.0803685 35.4682C0.0832829 35.8168 0.443794 36.0975 0.759424 36.182C1.08759 36.2697 1.66056 36.2417 2.0371 36.3026C3.27105 36.5026 4.02443 36.9633 4.64111 37.9C4.99434 38.4363 4.87019 38.3249 5.12345 38.8175C5.71157 39.9611 5.92345 42.1093 6.0852 43.4336C6.4871 46.724 6.96885 49.9933 7.37278 53.27C7.47508 54.1 7.54298 54.9516 7.69715 55.7385C8.2643 58.6307 9.42918 61.198 11.3862 63.1833C11.854 63.6578 12.2824 64.0792 12.8364 64.5312C13.0978 64.7446 13.3426 64.9328 13.6358 65.1304L14.4638 65.6859C14.551 65.6952 15.2994 66.1187 15.4792 66.2024C15.7846 66.3443 16.1894 66.55 16.5272 66.6485C18.6603 67.4646 20.4689 67.4762 22.9712 67.4812C32.6135 67.5004 42.2666 67.4652 51.9112 67.4803C53.0852 67.4821 54.2984 67.5173 55.4362 67.39C57.3533 67.1752 59.2147 66.5089 60.7795 65.5093C62.3629 64.4977 63.4324 63.5377 64.5661 62.0677C64.8214 61.7366 65.0657 61.4251 65.3096 61.0042C65.5264 60.6303 65.7374 60.2558 65.9621 59.8367C66.1836 59.3727 66.5858 58.4323 66.7435 57.9499C66.8551 57.6089 66.9603 57.2627 67.048 56.906L67.3039 55.8396C67.2666 55.7061 67.392 55.0548 67.4258 54.8916C67.4549 54.3926 67.5461 53.8328 67.6143 53.342L68.1893 48.8331C68.2415 48.3581 68.3336 47.8507 68.4003 47.3733C68.6026 45.9274 68.7573 44.2948 68.9797 42.9058C69.057 42.4238 69.0878 41.9059 69.1788 41.4107C69.3577 40.4361 69.6156 39.3493 70.0443 38.461C70.058 38.4325 70.0714 38.4054 70.0834 38.3791C70.3198 37.8508 70.8761 37.1405 71.3742 36.8465C71.8478 36.567 71.9967 36.4819 72.593 36.3726C73.3557 36.233 73.5853 36.298 74.14 36.2263C74.4859 36.1817 75.0029 35.7585 74.9286 35.3727C74.9452 35.3467 74.949 35.3592 74.9595 35.3053C74.9784 35.2077 74.9627 35.2811 74.9525 35.2132C75.0379 35.0783 74.9819 32.7127 74.9828 32.3341L74.986 27.9625C74.984 27.516 75.0111 27.064 74.7313 26.7673C74.4247 26.4415 74.2221 26.3747 73.6815 26.3724L66.4247 26.3712C64.6856 26.3768 62.7143 26.3975 60.9741 26.3739C60.8255 26.3718 60.7232 26.3278 60.6748 26.447L60.6533 26.456C60.6259 26.6493 60.3035 28.0117 60.2304 28.0951C60.2321 28.2531 60.1613 28.4203 60.1336 28.5745C60.0267 28.8307 59.5012 31.1424 59.4082 31.4939C59.2797 31.9797 59.1521 32.458 59.0186 32.9403C58.8898 33.4057 58.7787 33.9318 58.6435 34.3753C58.0647 36.2706 56.868 37.7412 55.6822 38.7C52.4556 41.3081 48.2082 41.4127 44.7949 39.0559C44.2539 38.6365 43.7489 38.2468 43.2992 37.7403C41.9186 36.1858 40.9286 34.0003 41.0303 31.6932C41.0568 30.8536 41.2151 30.1052 41.4066 29.3503L41.9128 27.3138C41.9574 27.1809 41.9183 27.2625 41.9591 27.2266C41.9542 26.9923 42.1095 26.7705 42.0818 26.5417C42.1084 26.5105 42.0947 26.5621 42.127 26.4654C42.1489 26.4001 42.1366 26.4327 42.1358 26.3721L1.11294 26.3788L0.619241 26.4479C0.501499 26.5755 0.173921 26.6956 0.0564704 27.1025C-0.0327102 27.4114 0.015086 30.2503 0.015086 30.7026C0.0147945 31.509 0.0177089 32.3152 0.0168346 33.1216C0.0165432 33.4701 -0.0487394 35.3251 0.0797857 35.4682" fill="white"/>
</svg>
