<svg width="20" height="20" viewBox="0 0 20 20" fill="none" xmlns="http://www.w3.org/2000/svg">
<path d="M17.1633 7.20722H12.705V2.74889C12.705 1.23088 11.4741 0 9.95611 0C8.4381 0 7.20722 1.23088 7.20722 2.74889V7.20722H2.74889C1.23088 7.20722 0 8.4381 0 9.95611C0 11.4741 1.23088 12.705 2.74889 12.705H7.20722V17.1633C7.20722 18.6813 8.4381 19.9122 9.95611 19.9122C11.4741 19.9122 12.705 18.6813 12.705 17.1633V12.705H17.1633C18.6813 12.705 19.9122 11.4741 19.9122 9.95611C19.9122 8.4381 18.6813 7.20722 17.1633 7.20722Z" fill="white"/>
</svg>
